<svg xmlns="http://www.w3.org/2000/svg" viewBox="0 0 100 100"><defs><style>.cls-1,.cls-2{fill:#fff;}.cls-2,.cls-3{stroke:#000;stroke-linecap:round;stroke-linejoin:round;stroke-width:2px;}.cls-3{fill:none;}</style></defs><title>25x25_Generic_failed</title><g id="Format"><rect class="cls-1" width="100" height="100"/></g><g id="Design"><polygon class="cls-2" points="61.5 48.5 38.5 48.5 38.5 42.5 41.5 42.5 45.5 38.5 53.5 38.5 57.5 42.5 61.5 42.5 61.5 48.5"/><polygon class="cls-2" points="54.5 45.5 52.5 47.5 52.5 49.5 54.5 51.5 56.5 51.5 58.5 49.5 58.5 47.5 56.5 45.5 54.5 45.5"/><polygon class="cls-2" points="43.5 45.5 41.5 47.5 41.5 49.5 43.5 51.5 45.5 51.5 47.5 49.5 47.5 47.5 45.5 45.5 43.5 45.5"/><polyline class="cls-3" points="38.5 60.5 41.5 57.5 45.5 61.5 49.5 57.5 53.5 61.5 57.5 57.5 61.5 61.5"/><polyline class="cls-3" points="45.5 60.5 45.5 52.5 38.5 52.5"/></g></svg>